<svg width="71" height="71" viewBox="0 0 71 71" fill="none" xmlns="http://www.w3.org/2000/svg">
<circle cx="35.5" cy="35.5" r="35.5" fill="#D5F0F7"/>
<path fill-rule="evenodd" clip-rule="evenodd" d="M29.8765 22.2793C28.7311 23.8565 28.4813 25.6152 28.7869 26.5479C28.9446 27.029 28.6824 27.5468 28.2012 27.7045C27.7202 27.8621 27.2024 27.5999 27.0448 27.1188C26.5048 25.4708 27.0113 23.1045 28.3932 21.2019C29.8182 19.2399 32.2357 17.6667 35.6667 17.6667C39.1529 17.6667 41.7519 19.0985 43.3446 20.9972C44.9036 22.8555 45.5449 25.2381 44.9454 27.1126C44.7913 27.5948 44.2753 27.8607 43.7931 27.7065C43.3109 27.5522 43.045 27.0363 43.1993 26.5541C43.5567 25.4364 43.2139 23.694 41.94 22.1754C40.6999 20.6971 38.6175 19.5 35.6667 19.5C32.8597 19.5 30.9789 20.7615 29.8765 22.2793Z" fill="#333333"/>
<path fill-rule="evenodd" clip-rule="evenodd" d="M31.4167 19.5C31.9229 19.5 32.3333 19.9104 32.3333 20.4167V24.0833C32.3333 24.5896 31.9229 25 31.4167 25C30.9104 25 30.5 24.5896 30.5 24.0833V20.4167C30.5 19.9104 30.9104 19.5 31.4167 19.5Z" fill="#333333"/>
<path fill-rule="evenodd" clip-rule="evenodd" d="M36 17.6667C36.5063 17.6667 36.9166 18.0771 36.9166 18.5834V22.25C36.9166 22.7563 36.5063 23.1667 36 23.1667C35.4937 23.1667 35.0833 22.7563 35.0833 22.25V18.5834C35.0833 18.0771 35.4937 17.6667 36 17.6667Z" fill="#333333"/>
<path fill-rule="evenodd" clip-rule="evenodd" d="M30.615 41.1592C30.4057 40.7303 29.9329 40.4986 29.472 40.6119C24.5183 41.8292 19.5 44.3115 19.5 48.0456V52.5V54.3333H21.3333H50.6667H52.5V52.5V48.0456C52.5 44.3115 47.4817 41.8292 42.528 40.6119C42.0671 40.4986 41.5943 40.7303 41.385 41.1592H37.6596C36.845 41.1593 36.4302 41.1593 36.0227 41.1593C35.6001 41.1593 35.1853 41.1592 34.3402 41.1594L30.615 41.1592ZM37.66 42.9925C37.6598 42.9925 37.6597 42.9925 37.6596 42.9925C36.8398 42.9927 36.4272 42.9927 36.022 42.9927C35.602 42.9926 35.1899 42.9926 34.3407 42.9928H34.3401L30.6148 42.9925L29.4695 42.9924L29.2585 42.56C27.1297 43.1343 25.1217 43.9337 23.6399 44.914C21.9682 46.0198 21.3333 47.0912 21.3333 48.0456V52.5H50.6667V48.0456C50.6667 47.0912 50.0318 46.0198 48.3601 44.914C46.8783 43.9337 44.8703 43.1343 42.7415 42.56L42.5305 42.9925H41.385H37.66Z" fill="#333333"/>
<path d="M28.6667 46.0834C28.6667 45.5771 29.0771 45.1667 29.5834 45.1667C30.0896 45.1667 30.5 45.5771 30.5 46.0834V52.5C30.5 53.0063 30.0896 53.4167 29.5834 53.4167C29.0771 53.4167 28.6667 53.0063 28.6667 52.5V46.0834Z" fill="#333333"/>
<path d="M41.5 46.0834C41.5 45.5771 41.9104 45.1667 42.4167 45.1667C42.9229 45.1667 43.3333 45.5771 43.3333 46.0834V52.5C43.3333 53.0063 42.9229 53.4167 42.4167 53.4167C41.9104 53.4167 41.5 53.0063 41.5 52.5V46.0834Z" fill="#333333"/>
<path fill-rule="evenodd" clip-rule="evenodd" d="M40.5834 19.5C41.0896 19.5 41.5 19.9104 41.5 20.4167V24.0833C41.5 24.5896 41.0896 25 40.5834 25C40.0771 25 39.6667 24.5896 39.6667 24.0833V20.4167C39.6667 19.9104 40.0771 19.5 40.5834 19.5Z" fill="#333333"/>
<path fill-rule="evenodd" clip-rule="evenodd" d="M25.521 28.4505C25.3586 27.2957 26.0401 26.2101 27.1411 25.2316L28.359 26.6018C27.3975 27.4565 27.3055 27.9752 27.3365 28.1952C27.3689 28.426 27.6002 28.8065 28.4229 29.2244C30.0312 30.0413 32.948 30.5 36 30.5C39.052 30.5 41.9688 30.0413 43.5771 29.2244C44.3999 28.8065 44.6311 28.426 44.6636 28.1952C44.6945 27.9752 44.6026 27.4565 43.6411 26.6018L44.859 25.2316C45.9599 26.2101 46.6415 27.2957 46.4791 28.4505C46.3181 29.5949 45.3892 30.3602 44.4073 30.859C42.4062 31.8754 39.1355 32.3334 36 32.3334C32.8645 32.3334 29.5938 31.8754 27.5927 30.859C26.6108 30.3602 25.6819 29.5949 25.521 28.4505Z" fill="#333333"/>
<path fill-rule="evenodd" clip-rule="evenodd" d="M29.5833 30.5C29.5833 34.0438 32.4562 36.9167 36 36.9167C39.5438 36.9167 42.4167 34.0438 42.4167 30.5H44.25C44.25 35.0564 40.5564 38.75 36 38.75C31.4436 38.75 27.75 35.0564 27.75 30.5H29.5833Z" fill="#333333"/>
</svg>
