<svg width="10" height="10" viewBox="0 0 10 10" fill="none" xmlns="http://www.w3.org/2000/svg">
<path d="M8.93415 7.87133L6.06282 5L8.93415 2.12867L8.93415 2.12867L8.93521 2.12759C9.07381 1.98617 9.15099 1.79577 9.14999 1.59776C9.14899 1.39975 9.06989 1.21014 8.92987 1.07013C8.78986 0.930112 8.60025 0.85101 8.40224 0.85001C8.20423 0.84901 8.01383 0.926192 7.87241 1.06478L7.8724 1.06478L7.87133 1.06585L5 3.93718L2.12867 1.06585L2.12867 1.06585L2.12759 1.06478C1.98617 0.926192 1.79577 0.84901 1.59776 0.85001C1.39975 0.85101 1.21014 0.930111 1.07013 1.07013C0.930111 1.21014 0.85101 1.39975 0.85001 1.59776C0.84901 1.79577 0.926192 1.98617 1.06478 2.12759L1.06478 2.1276L1.06585 2.12867L3.93718 5L1.06585 7.87133L1.06585 7.87133L1.06478 7.87241C0.926192 8.01383 0.84901 8.20423 0.85001 8.40224C0.85101 8.60025 0.930112 8.78986 1.07013 8.92987C1.21014 9.06989 1.39975 9.14899 1.59776 9.14999C1.79577 9.15099 1.98617 9.07381 2.12759 8.93521L2.1276 8.93522L2.12867 8.93415L5 6.06282L7.87133 8.93415L7.87133 8.93415L7.87241 8.93521C8.01383 9.07381 8.20423 9.15099 8.40224 9.14999C8.60025 9.14899 8.78986 9.06989 8.92987 8.92987C9.06989 8.78986 9.14899 8.60025 9.14999 8.40224C9.15099 8.20423 9.07381 8.01383 8.93521 7.87241L8.93522 7.8724L8.93415 7.87133Z" fill="#B61717" stroke="#B61717" stroke-width="0.3"/>
</svg>
