<svg width="16" height="7" viewBox="0 0 16 7" fill="none" xmlns="http://www.w3.org/2000/svg">
<path d="M15.2959 3.35203C15.1981 1.76771 13.8876 0.515869 12.2641 0.515869C10.8362 0.515869 9.64307 1.51339 9.31055 2.84354C8.99756 2.56971 8.52822 2.41322 8.00003 2.41322C7.47184 2.41322 6.98288 2.58923 6.68952 2.84354C6.37652 1.51353 5.16384 0.515869 3.73599 0.515869C2.132 0.515869 0.801994 1.76771 0.704159 3.35203H0V3.95836H0.723685C0.91934 5.44488 2.19068 6.57936 3.73585 6.57936C5.41801 6.57936 6.76768 5.22969 6.76768 3.54753C6.92418 3.17585 7.41316 2.92154 8 2.92154C8.58683 2.92154 9.07583 3.19537 9.23231 3.54753C9.23231 5.22969 10.6015 6.57936 12.2641 6.57936C13.7898 6.57936 15.0612 5.44488 15.2763 3.95836H16V3.35203H15.2959ZM3.73596 5.99256C2.38628 5.99256 1.29096 4.89724 1.29096 3.54756C1.29096 2.19789 2.38628 1.10256 3.73596 1.10256C5.08563 1.10256 6.18096 2.19789 6.18096 3.54756C6.18096 4.89724 5.08549 5.99256 3.73596 5.99256ZM12.2641 5.99256C10.9144 5.99256 9.81911 4.89724 9.81911 3.54756C9.81911 2.19789 10.9144 1.10256 12.2641 1.10256C13.6138 1.10256 14.7091 2.19789 14.7091 3.54756C14.7091 4.89724 13.6138 5.99256 12.2641 5.99256Z" fill="#840606"/>
</svg>
