<svg width="43" height="44" viewBox="0 0 43 44" fill="none" xmlns="http://www.w3.org/2000/svg">
<rect x="26" y="36.6541" width="12" height="5" transform="rotate(-46.1516 26 36.6541)" fill="#FFFF00"/>
<path d="M26.2036 16.3022H8.70108C8.25939 16.3022 7.90098 16.6606 7.90098 17.1023C7.90098 17.544 8.25939 17.9024 8.70108 17.9024H26.2036C26.6453 17.9024 27.0037 17.544 27.0037 17.1023C27.0037 16.6606 26.6453 16.3022 26.2036 16.3022Z" fill="black" stroke="black" stroke-width="0.2"/>
<path d="M8.70108 12.3016H15.7021C16.1438 12.3016 16.5022 11.9432 16.5022 11.5015C16.5022 11.0598 16.1438 10.7014 15.7021 10.7014H8.70108C8.25939 10.7014 7.90098 11.0598 7.90098 11.5015C7.90098 11.9432 8.25939 12.3016 8.70108 12.3016Z" fill="black" stroke="black" stroke-width="0.2"/>
<path d="M26.2036 21.9031H8.70108C8.25939 21.9031 7.90098 22.2615 7.90098 22.7032C7.90098 23.1448 8.25939 23.5033 8.70108 23.5033H26.2036C26.6453 23.5033 27.0037 23.1448 27.0037 22.7032C27.0037 22.2615 26.6453 21.9031 26.2036 21.9031Z" fill="black" stroke="black" stroke-width="0.2"/>
<path d="M20.6028 27.5038H8.70108C8.25939 27.5038 7.90098 27.8622 7.90098 28.3039C7.90098 28.7456 8.25939 29.104 8.70108 29.104H20.6028C21.0445 29.104 21.4029 28.7456 21.4029 28.3039C21.4029 27.8622 21.0445 27.5038 20.6028 27.5038Z" fill="black" stroke="black" stroke-width="0.2"/>
<path d="M18.5025 34.7049C18.9442 34.7049 19.3026 34.3464 19.3026 33.9048C19.3026 33.4631 18.9442 33.1047 18.5025 33.1047H8.70108C8.25939 33.1047 7.90098 33.4631 7.90098 33.9048C7.90098 34.3464 8.25939 34.7049 8.70108 34.7049H18.5025Z" fill="black" stroke="black" stroke-width="0.2"/>
<path d="M21.3029 41.5058H2.5002V2.5002H22.6031V12.2016V12.3016H22.7031H32.4045V24.8034V24.9034H32.5045H33.9047H34.0047V24.8034V11.2117V11.1702L33.9754 11.141L23.7638 0.929289L23.7345 0.9H23.6931H1H0.9V1V43.006V43.106H1H21.3029H21.4029V43.006V41.6058V41.5058H21.3029ZM24.2033 10.7014V3.63156L31.2732 10.7014H24.2033Z" fill="black" stroke="black" stroke-width="0.2"/>
<path d="M38.4098 30.8285L40.3267 28.9116C40.4379 28.8004 40.499 28.6523 40.4997 28.4943L38.4098 30.8285ZM38.4098 30.8285L35.5807 27.9994L37.4976 26.0825C37.7191 25.861 38.1101 25.8606 38.3313 26.0824L38.3314 26.0825L40.3267 28.0778C40.4382 28.1893 40.4996 28.3367 40.4997 28.494L38.4098 30.8285ZM39.4635 24.9512L39.4635 24.9511C38.6347 24.1224 37.195 24.1224 36.3662 24.9511L25.591 35.7257L25.5722 35.7445L25.5652 35.7701L24.0873 41.1906L23.7427 41.5351C23.4457 41.8321 23.4321 42.3031 23.6992 42.6172L23.6683 42.7409L23.792 42.71C23.9403 42.8363 24.1242 42.9009 24.3084 42.9009C24.5131 42.9009 24.7181 42.8225 24.8741 42.6665L25.2186 42.3219L30.6391 40.844L30.6647 40.837L30.6835 40.8182L41.458 30.043C41.8716 29.6294 42.0999 29.0796 42.0999 28.4943C42.0999 27.9091 41.8716 27.3593 41.458 26.9464L39.4635 24.9512ZM30.2487 38.9896L27.4196 36.1605L34.4493 29.1307L37.2784 31.9598L30.2487 38.9896ZM25.9435 40.465L26.6972 37.7007L28.7078 39.7113L25.9435 40.465Z" fill="black" stroke="black" stroke-width="0.2"/>
<path d="M8.70108 12.3016H15.7021C16.1438 12.3016 16.5022 11.9432 16.5022 11.5015C16.5022 11.0598 16.1438 10.7014 15.7021 10.7014H8.70108C8.25939 10.7014 7.90098 11.0598 7.90098 11.5015C7.90098 11.9432 8.25939 12.3016 8.70108 12.3016Z" fill="black" stroke="black" stroke-width="0.2"/>
</svg>
