<svg width="71" height="71" viewBox="0 0 71 71" fill="none" xmlns="http://www.w3.org/2000/svg">
<circle cx="35.5" cy="35.5" r="35.5" fill="#FFECBB"/>
<path d="M35.5016 36.6708L37.8852 39.0545L36.6093 40.3304L36.6091 40.3303L36.6054 40.3345C36.3801 40.5865 36.3364 40.84 36.376 41.052C36.4143 41.2572 36.5287 41.4153 36.6101 41.4931C36.6104 41.4934 36.6108 41.4937 36.6111 41.4941L47.2022 52.0853L47.2022 52.0853L47.2051 52.088C48.1757 52.9839 49.197 53.1866 50.0768 53.0611C50.9513 52.9363 51.6819 52.488 52.0844 52.0857C52.9758 51.205 53.2049 50.2085 53.0956 49.3202C52.9868 48.4367 52.5437 47.6616 52.0917 47.2096L41.4988 36.6166C41.1758 36.2936 40.654 36.2922 40.3366 36.617C40.3364 36.6172 40.3362 36.6173 40.3361 36.6175L39.0542 37.8928L36.6704 35.509C38.1627 33.7515 39.0638 31.4725 39.0638 28.9821C39.0638 23.4152 34.5486 18.9 28.9817 18.9C23.4148 18.9 18.8926 23.4151 18.8926 28.9821C18.8926 34.549 23.4078 39.0642 28.9747 39.0642C31.4651 39.0642 33.7442 38.1631 35.5016 36.6708ZM28.9817 37.4204C24.3235 37.4204 20.5434 33.6403 20.5434 28.9821C20.5434 24.3239 24.3235 20.5439 28.9817 20.5439C33.6398 20.5439 37.4199 24.3239 37.4199 28.9821C37.4199 33.6403 33.6398 37.4204 28.9817 37.4204ZM50.9296 50.9306C50.2259 51.6341 49.0816 51.634 48.378 50.9303L38.3624 40.9148L40.9144 38.3629L50.9284 48.3699C51.4399 48.9289 51.5232 49.4778 51.4411 49.9298C51.3579 50.3878 51.103 50.7538 50.9296 50.9306Z" fill="#231F20" stroke="black" stroke-width="0.2"/>
</svg>
